<svg width="23" height="22" viewBox="0 0 23 22" fill="none" xmlns="http://www.w3.org/2000/svg">
<path fill-rule="evenodd" clip-rule="evenodd" d="M3.5957 10.9996C3.5957 5.22298 5.52181 3.29688 11.2985 3.29688C17.0751 3.29688 19.0012 5.22298 19.0012 10.9996C19.0012 16.7763 17.0751 18.7024 11.2985 18.7024C5.52181 18.7024 3.5957 16.7763 3.5957 10.9996ZM11.2514 9.34858C11.1835 9.28647 11.0788 9.28879 11.0137 9.35386L7.49998 12.8676C7.27511 13.0925 6.91052 13.0925 6.68565 12.8676C6.46077 12.6427 6.46077 12.2781 6.68565 12.0532L10.1994 8.53953C10.7001 8.03878 11.5063 8.02087 12.0288 8.4989L15.8945 12.0356C16.1291 12.2502 16.1453 12.6145 15.9306 12.8491C15.716 13.0837 15.3517 13.0999 15.1171 12.8853L11.2514 9.34858Z" fill="white"/>
</svg>
