<svg width="25" height="24" viewBox="0 0 25 24" fill="none" xmlns="http://www.w3.org/2000/svg">
<g clip-path="url(#clip0_208_6185)">
<path d="M11.7144 8.80564C12.7353 7.78477 14.1096 7.19536 15.5529 7.15933C16.9962 7.12329 18.3982 7.6434 19.4688 8.61206L19.6725 8.80564L22.8553 11.9896C23.8919 13.028 24.4819 14.4302 24.4996 15.8974C24.5173 17.3646 23.9612 18.7806 22.9499 19.8437C21.9386 20.9068 20.5521 21.5328 19.0859 21.5884C17.6197 21.644 16.1898 21.1248 15.1009 20.1413L14.8983 19.9477L12.5101 17.5595C12.3082 17.357 12.191 17.0852 12.1823 16.7994C12.1736 16.5136 12.274 16.2351 12.4631 16.0207C12.6522 15.8062 12.9158 15.6718 13.2005 15.6446C13.4852 15.6175 13.7695 15.6998 13.9957 15.8747L14.1015 15.9681L16.4897 18.3563C17.1088 18.979 17.9461 19.336 18.824 19.3517C19.702 19.3673 20.5515 19.0403 21.1923 18.44C21.8332 17.8397 22.2149 17.0134 22.2567 16.1363C22.2984 15.2592 21.9968 14.4003 21.4159 13.7419L21.2639 13.581L18.0811 10.3982C17.7676 10.0846 17.3953 9.83583 16.9857 9.66611C16.576 9.4964 16.1369 9.40904 15.6934 9.40904C15.25 9.40904 14.8109 9.4964 14.4012 9.66611C13.9915 9.83583 13.6193 10.0846 13.3058 10.3982C13.0946 10.6092 12.8082 10.7277 12.5097 10.7276C12.2111 10.7275 11.9248 10.6088 11.7138 10.3976C11.5028 10.1864 11.3843 9.90006 11.3844 9.6015C11.3845 9.30295 11.5032 9.01667 11.7144 8.80564ZM4.5519 1.64318C5.57284 0.622312 6.94711 0.0329026 8.39044 -0.00312836C9.83377 -0.0391593 11.2357 0.480945 12.3063 1.4496L12.5101 1.64318L14.8972 4.03254C15.099 4.23508 15.2162 4.50685 15.2249 4.79266C15.2337 5.07848 15.1333 5.35689 14.9442 5.57137C14.755 5.78584 14.4914 5.92029 14.2067 5.94741C13.9221 5.97452 13.6378 5.89227 13.4116 5.71736L13.3058 5.62395L10.9186 3.23684C10.2985 2.62072 9.46353 2.26914 8.58943 2.25608C7.71533 2.24302 6.87024 2.5695 6.23195 3.16682C5.59366 3.76415 5.21192 4.58576 5.16705 5.4588C5.12218 6.33184 5.41768 7.18825 5.99137 7.84787L6.14331 8.00993L9.32724 11.1939C9.96041 11.8268 10.8191 12.1824 11.7144 12.1824C12.6097 12.1824 13.4683 11.8268 14.1015 11.1939C14.206 11.0893 14.33 11.0063 14.4666 10.9497C14.6031 10.8931 14.7495 10.8639 14.8973 10.8639C15.0452 10.8638 15.1915 10.8929 15.3281 10.9494C15.4647 11.0059 15.5889 11.0888 15.6934 11.1933C15.798 11.2978 15.881 11.4219 15.9376 11.5584C15.9942 11.695 16.0234 11.8413 16.0234 11.9892C16.0235 12.137 15.9944 12.2834 15.9379 12.42C15.8814 12.5566 15.7985 12.6807 15.694 12.7853C14.6731 13.8061 13.2988 14.3956 11.8555 14.4316C10.4121 14.4676 9.01016 13.9475 7.93955 12.9789L7.73471 12.7853L4.5519 9.60134C3.49694 8.54606 2.9043 7.11499 2.9043 5.62282C2.9043 4.13066 3.49694 2.69846 4.5519 1.64318Z" fill="black"/>
</g>
<defs>
<clipPath id="clip0_208_6185">
<rect width="24" height="24" fill="white" transform="translate(0.5)"/>
</clipPath>
</defs>
</svg>
