<svg width="24" height="24" viewBox="0 0 24 24" fill="none" xmlns="http://www.w3.org/2000/svg">
<path fill-rule="evenodd" clip-rule="evenodd" d="M9.21808 5.3047C10.8412 4.63029 12.6542 4.56875 14.3194 5.13155C15.9845 5.69434 17.3884 6.84311 18.2696 8.36396C18.4773 8.72236 18.9361 8.84455 19.2945 8.63689C19.6529 8.42923 19.7751 7.97035 19.5675 7.61195C18.5039 5.77633 16.8094 4.3898 14.7996 3.71052C12.7898 3.03124 10.6017 3.10551 8.64255 3.91951C6.68343 4.73351 5.08691 6.23174 4.15024 8.13526C3.21356 10.0388 3.00059 12.2178 3.55097 14.2667C4.10134 16.3155 5.37756 18.0945 7.14199 19.2725C8.90642 20.4504 11.0388 20.9469 13.1421 20.6697C15.2454 20.3924 17.1762 19.3602 18.5751 17.7652C19.974 16.1703 20.7456 14.1213 20.7462 11.9998C20.7463 11.5856 20.4106 11.2497 19.9964 11.2496C19.5822 11.2495 19.2463 11.5852 19.2462 11.9994C19.2457 13.7571 18.6064 15.4547 17.4474 16.7762C16.2884 18.0976 14.6887 18.9528 12.946 19.1825C11.2034 19.4123 9.43671 19.0009 7.97484 18.0249C6.51298 17.049 5.45561 15.575 4.99961 13.8775C4.54361 12.18 4.72006 10.3746 5.49611 8.79753C6.27216 7.22043 7.59492 5.97911 9.21808 5.3047Z" fill="#120108"/>
<path fill-rule="evenodd" clip-rule="evenodd" d="M18.9962 3.2526C18.582 3.2526 18.2462 3.58839 18.2462 4.0026V7.25128H14.9975C14.5833 7.25128 14.2475 7.58707 14.2475 8.00128C14.2475 8.41549 14.5833 8.75128 14.9975 8.75128H18.9962C19.4104 8.75128 19.7462 8.41549 19.7462 8.00128V4.0026C19.7462 3.58839 19.4104 3.2526 18.9962 3.2526Z" fill="#120108"/>
</svg>
